<svg width="135" height="27" viewBox="0 0 135 27" fill="none" xmlns="http://www.w3.org/2000/svg">
<g clip-path="url(#clip0_112_19056)">
<path d="M38.5056 0.542969H3.83664C1.99485 0.542969 0.586426 1.9514 0.586426 3.79319V23.2945C0.586426 25.1363 2.10319 26.5447 3.83664 26.5447H38.5056C40.3474 26.5447 41.7559 25.1363 41.7559 23.2945V3.79319C41.7559 1.9514 40.2391 0.542969 38.5056 0.542969Z" fill="#DEDEDE"/>
<path d="M38.5056 1.62598C39.6974 1.62598 40.6724 2.60104 40.6724 3.79279V23.2941C40.6724 24.4858 39.6974 25.4609 38.5056 25.4609H3.83661C2.64487 25.4609 1.6698 24.4858 1.6698 23.2941V3.79279C1.6698 2.60104 2.64487 1.62598 3.83661 1.62598H38.5056Z" fill="white"/>
<path d="M31.2468 11.4851H30.9218C30.4884 12.5685 30.1634 13.1102 29.8384 14.7353H31.8968C31.5718 13.1102 31.5718 12.3518 31.2468 11.4851ZM34.3887 17.8772H32.5469C32.4385 17.8772 32.4385 17.8772 32.3302 17.7689L32.1135 16.7938L32.0052 16.5771H29.405C29.2967 16.5771 29.1883 16.5771 29.1883 16.7938L28.8633 17.7689C28.8633 17.8772 28.7549 17.8772 28.7549 17.8772H26.4798L26.6965 17.3355L29.8384 9.96835C29.8384 9.42664 30.1634 9.20996 30.7051 9.20996H32.3302C32.4385 9.20996 32.5469 9.20996 32.5469 9.42664L34.0636 16.4688C34.172 16.9021 34.2803 17.2272 34.2803 17.6605C34.3887 17.7689 34.3887 17.7689 34.3887 17.8772ZM19.871 17.5522L20.3044 15.6021C20.4127 15.6021 20.5211 15.7104 20.5211 15.7104C21.2794 16.0354 22.0378 16.2521 22.7962 16.1438C23.0129 16.1438 23.3379 16.0354 23.5546 15.9271C24.0963 15.7104 24.0963 15.1687 23.6629 14.7353C23.4463 14.5187 23.1212 14.4103 22.7962 14.1936C22.3629 13.9769 21.9295 13.7603 21.6045 13.4352C20.3044 12.3518 20.7377 10.8351 21.4961 10.0767C22.1462 9.64332 22.4712 9.20996 23.3379 9.20996C24.638 9.20996 26.0464 9.20996 26.6965 9.42664H26.8048C26.6965 10.0767 26.5881 10.6184 26.3715 11.2684C25.8298 11.0518 25.288 10.8351 24.7463 10.8351C24.4213 10.8351 24.0963 10.8351 23.7713 10.9434C23.5546 10.9434 23.4463 11.0518 23.3379 11.1601C23.1212 11.3768 23.1212 11.7018 23.3379 11.9185L23.8796 12.3518C24.313 12.5685 24.7463 12.7852 25.0714 13.0019C25.6131 13.3269 26.1548 13.8686 26.2631 14.5187C26.4798 15.4937 26.1548 16.3604 25.288 17.0105C24.7463 17.4438 24.5297 17.6605 23.7713 17.6605C22.2545 17.6605 21.0628 17.7689 20.0877 17.4438C19.9794 17.6605 19.9794 17.6605 19.871 17.5522ZM16.0791 17.8772C16.1874 17.1188 16.1874 17.1188 16.2958 16.7938C16.8375 14.4103 17.3792 11.9185 17.8125 9.53498C17.9209 9.3183 17.9209 9.20996 18.1376 9.20996H20.0877C19.871 10.51 19.6543 11.4851 19.3293 12.6769C19.0043 14.302 18.6793 15.9271 18.2459 17.5522C18.2459 17.7689 18.1376 17.7689 17.9209 17.7689L16.0791 17.8772ZM6.00342 9.42664C6.00342 9.3183 6.2201 9.20996 6.32844 9.20996H10.012C10.5537 9.20996 10.9871 9.53498 11.0954 10.0767L12.0705 14.8437C12.0705 14.952 12.0705 14.952 12.1788 15.0604C12.1788 14.952 12.2872 14.952 12.2872 14.952L14.5623 9.42664C14.454 9.3183 14.5623 9.20996 14.6707 9.20996H16.9458C16.9458 9.3183 16.9458 9.3183 16.8375 9.42664L13.4789 17.3355C13.3706 17.5522 13.3706 17.6605 13.2622 17.7689C13.1539 17.8772 12.9372 17.7689 12.7205 17.7689H11.0954C10.9871 17.7689 10.8787 17.7689 10.8787 17.5522L9.1453 10.8351C8.92861 10.6184 8.60359 10.2934 8.17023 10.185C7.52019 9.86 6.32844 9.64332 6.11176 9.64332L6.00342 9.42664Z" fill="#142688"/>
</g>
<g clip-path="url(#clip1_112_19056)">
<path d="M85.0921 0.542969H50.4231C48.5813 0.542969 47.1729 1.9514 47.1729 3.79319V23.2945C47.1729 25.1363 48.6896 26.5447 50.4231 26.5447H85.0921C86.9339 26.5447 88.3423 25.1363 88.3423 23.2945V3.79319C88.3423 1.9514 86.8255 0.542969 85.0921 0.542969Z" fill="#DEDEDE"/>
<path d="M85.0922 1.62598C86.2839 1.62598 87.259 2.60104 87.259 3.79279V23.2941C87.259 24.4858 86.2839 25.4609 85.0922 25.4609H50.4232C49.2314 25.4609 48.2563 24.4858 48.2563 23.2941V3.79279C48.2563 2.60104 49.2314 1.62598 50.4232 1.62598H85.0922Z" fill="white"/>
<path d="M63.4239 21.1276C67.6124 21.1276 71.0078 17.7322 71.0078 13.5438C71.0078 9.35536 67.6124 5.95996 63.4239 5.95996C59.2355 5.95996 55.8401 9.35536 55.8401 13.5438C55.8401 17.7322 59.2355 21.1276 63.4239 21.1276Z" fill="#EB001B"/>
<path d="M72.0913 21.1276C76.2797 21.1276 79.6751 17.7322 79.6751 13.5438C79.6751 9.35536 76.2797 5.95996 72.0913 5.95996C67.9028 5.95996 64.5074 9.35536 64.5074 13.5438C64.5074 17.7322 67.9028 21.1276 72.0913 21.1276Z" fill="#F79E1B"/>
<path d="M71.0079 13.5436C71.0079 10.9434 69.7078 8.66825 67.7577 7.36816C65.8075 8.77659 64.5074 11.0517 64.5074 13.5436C64.5074 16.0354 65.8075 18.4189 67.7577 19.719C69.7078 18.4189 71.0079 16.1438 71.0079 13.5436Z" fill="#FF5F00"/>
</g>
<g clip-path="url(#clip2_112_19056)">
<path d="M131.679 0.542969H97.0096C95.1678 0.542969 93.7594 1.9514 93.7594 3.79319V23.2945C93.7594 25.1363 95.2762 26.5447 97.0096 26.5447H131.679C133.52 26.5447 134.929 25.1363 134.929 23.2945V3.79319C134.929 1.9514 133.412 0.542969 131.679 0.542969Z" fill="#DEDEDE"/>
<path d="M131.679 1.62598C132.87 1.62598 133.846 2.60104 133.846 3.79279V23.2941C133.846 24.4858 132.87 25.4609 131.679 25.4609H97.0097C95.818 25.4609 94.8429 24.4858 94.8429 23.2941V3.79279C94.8429 2.60104 95.818 1.62598 97.0097 1.62598H131.679Z" fill="#006FCF"/>
<path d="M103.479 11.6671L104.317 13.6996H102.647L103.479 11.6671ZM120.895 11.7516H117.669V12.6476H120.843V13.9899H117.676V14.9888H120.901V15.7895L123.151 13.3572L120.901 10.8221L120.895 11.7516ZM105.659 9.21646H109.987L110.948 11.3129L111.838 9.20996H123.073L124.241 10.4992L125.449 9.20996H130.609L126.797 13.3832L130.57 17.5305H125.333L124.165 16.2413L122.946 17.5305H104.626L104.091 16.2413H102.867L102.33 17.5305H98.0931L101.653 9.20996H105.369L105.659 9.21646ZM115.044 10.3844H112.618L110.993 14.2153L109.233 10.3844H106.825V15.5956L104.594 10.3844H102.434L99.8537 16.3561H101.538L102.074 15.0669H104.886L105.421 16.3561H108.368V12.0929L110.265 16.3626H111.554L113.44 12.1059V16.3637H115.019L115.045 10.3833L115.044 10.3844ZM125.163 13.3832L127.905 10.3844H125.931L124.197 12.2543L122.52 10.3844H116.134V16.3626H122.429L124.177 14.4796L125.854 16.3626H127.886L125.164 13.3832H125.163Z" fill="white"/>
</g>
<defs>
<clipPath id="clip0_112_19056">
<rect width="41.1694" height="26.0017" fill="white" transform="translate(0.586426 0.542969)"/>
</clipPath>
<clipPath id="clip1_112_19056">
<rect width="41.1694" height="26.0017" fill="white" transform="translate(47.1729 0.542969)"/>
</clipPath>
<clipPath id="clip2_112_19056">
<rect width="41.1694" height="26.0017" fill="white" transform="translate(93.7594 0.542969)"/>
</clipPath>
</defs>
</svg>
