<svg width="11" height="12" viewBox="0 0 11 12" fill="none" xmlns="http://www.w3.org/2000/svg">
<g clip-path="url(#clip0_86_22594)">
<path d="M3.29136 2.8312C3.29136 2.8312 3.46654 2.75842 3.8169 2.61286C4.16725 2.46731 4.75203 2.39453 5.57123 2.39453C6.39042 2.39453 7.15038 2.54008 7.8511 2.8312C8.55181 3.12232 9.10528 3.51669 9.51149 4.0143C9.9177 4.51191 10.1208 5.05522 10.1208 5.64423C10.1208 6.23324 9.9177 6.77655 9.51149 7.27416C9.10528 7.77177 8.55181 8.16613 7.8511 8.45725C7.15038 8.74837 6.39042 8.89393 5.57123 8.89393H5.29703C5.20225 8.89393 5.12101 8.89224 5.05331 8.88885C4.9856 8.88547 4.90775 8.877 4.81973 8.86346L4.4643 8.81269L4.23072 9.09704C4.19687 9.13089 4.14102 9.17997 4.06316 9.24429C3.9853 9.3086 3.89221 9.38138 3.78389 9.46263C3.67557 9.54387 3.54693 9.63019 3.39799 9.72159C3.24904 9.81299 3.10348 9.89254 2.96131 9.96024C3.02901 9.79098 3.08317 9.61834 3.1238 9.44232C3.16442 9.26629 3.18473 9.09704 3.18473 8.93455L3.19488 8.91424V8.45725L2.83945 8.27445C2.26398 7.98334 1.81714 7.60759 1.49894 7.14721C1.18074 6.68684 1.02164 6.18584 1.02164 5.64423C1.02164 5.05522 1.22475 4.51191 1.63096 4.0143C2.03718 3.51669 2.59064 3.12232 3.29136 2.8312ZM5.57123 1.74459C4.63017 1.74459 3.7602 1.91892 2.96131 2.26758C2.16243 2.61625 1.5311 3.09016 1.06734 3.68933C0.603584 4.28849 0.371704 4.94012 0.371704 5.64423C0.371704 6.31448 0.56127 6.92887 0.940402 7.48742C1.31953 8.04596 1.85438 8.50126 2.54494 8.85331C2.54494 8.86008 2.54325 8.86516 2.53986 8.86854C2.53648 8.87193 2.53479 8.877 2.53479 8.88377C2.53479 9.32384 2.36215 9.84176 2.01687 10.4375C2.00333 10.4714 1.99655 10.5086 1.99655 10.5492C1.99655 10.6305 2.02533 10.6999 2.08288 10.7574C2.14042 10.815 2.20982 10.8438 2.29106 10.8438C2.29783 10.8438 2.31475 10.8438 2.34184 10.8438C2.35538 10.8438 2.36553 10.8438 2.3723 10.8438C2.68373 10.7896 3.01886 10.6677 3.37768 10.4782C3.7365 10.2886 4.02931 10.1058 4.25611 9.92977C4.48291 9.75375 4.64032 9.61157 4.72834 9.50325C4.90436 9.53033 5.09393 9.54387 5.29703 9.54387C5.32411 9.54387 5.36812 9.54387 5.42905 9.54387C5.48998 9.54387 5.53738 9.54387 5.57123 9.54387C6.51229 9.54387 7.38226 9.36954 8.18114 9.02087C8.98003 8.6722 9.61135 8.19829 10.0751 7.59913C10.5389 6.99996 10.7707 6.34833 10.7707 5.64423C10.7707 4.68963 10.3578 3.84674 9.5318 3.11555C8.67198 2.36406 7.59213 1.92061 6.29225 1.78521C6.04853 1.75813 5.80818 1.74459 5.57123 1.74459Z" fill="white"/>
</g>
<defs>
<clipPath id="clip0_86_22594">
<rect width="10.6935" height="10.6935" fill="white" transform="matrix(1 0 0 -1 0.224609 11.5757)"/>
</clipPath>
</defs>
</svg>
