<svg width="20" height="20" viewBox="0 0 20 20" fill="none" xmlns="http://www.w3.org/2000/svg">
<path d="M19.7355 11.3851L18.073 5.6884C17.5858 4.01951 16.5267 2.55364 15.0642 1.52379C13.6017 0.493945 11.8198 -0.0407771 10.0016 0.00462298C8.18338 0.0500231 6.43328 0.67294 5.02948 1.77436C3.62568 2.87578 2.64873 4.39249 2.25392 6.0834L0.966798 11.5959C0.824624 12.205 0.827911 12.8368 0.976417 13.4445C1.12492 14.0522 1.41485 14.6205 1.82481 15.1072C2.23476 15.5939 2.75427 15.9868 3.34497 16.2567C3.93567 16.5266 4.58249 16.6668 5.23767 16.6667H6.21242C6.41325 17.6086 6.94981 18.4555 7.7312 19.0637C8.51258 19.672 9.49074 20.0042 10.4999 20.0042C11.5091 20.0042 12.4873 19.672 13.2686 19.0637C14.05 18.4555 14.5866 17.6086 14.7874 16.6667H15.5207C16.1951 16.6668 16.8605 16.5183 17.4647 16.2329C18.0689 15.9476 18.5957 15.533 19.0039 15.0216C19.4121 14.5103 19.6906 13.9159 19.8176 13.2851C19.9447 12.6543 19.9169 12.004 19.7364 11.3851H19.7355ZM10.4999 18.3334C9.95894 18.3313 9.43187 18.17 8.99081 17.8717C8.54975 17.5733 8.21625 17.1525 8.03592 16.6667H12.9639C12.7836 17.1525 12.4501 17.5733 12.009 17.8717C11.568 18.17 11.0409 18.3313 10.4999 18.3334ZM17.6102 14.0126C17.3663 14.3206 17.0505 14.5703 16.6876 14.7417C16.3247 14.9131 15.9249 15.0016 15.5198 15.0001H5.23767C4.84461 15 4.45658 14.9159 4.10222 14.7539C3.74786 14.5919 3.43623 14.3562 3.19031 14.0641C2.9444 13.7721 2.77049 13.4312 2.68141 13.0666C2.59234 12.702 2.59038 12.323 2.67567 11.9576L3.96192 6.44423C4.27198 5.11607 5.03932 3.92474 6.14195 3.05961C7.24458 2.19448 8.61922 1.70521 10.0473 1.66958C11.4755 1.63395 12.8751 2.054 14.0238 2.86296C15.1725 3.67192 16.0043 4.82336 16.3869 6.13423L18.0494 11.8309C18.1593 12.202 18.1768 12.5925 18.1005 12.9712C18.0243 13.3499 17.8564 13.7064 17.6102 14.0126Z" fill="#2C2C2C"/>
</svg>
